<mxfile host="app.diagrams.net" modified="2023-06-08T07:33:44.468Z" agent="Mozilla/5.0 (Macintosh; Intel Mac OS X 10_15_7) AppleWebKit/605.1.15 (KHTML, like Gecko) Version/16.4 Safari/605.1.15" version="21.3.7" etag="Vt-PpRgr3dD_-_18CLuQ" type="github">
  <diagram name="Page-1" id="aGRfP6adJRijPhehNw1x">
    <mxGraphModel>
      <root>
        <mxCell id="0" />
        <mxCell id="1" parent="0" />
      </root>
    </mxGraphModel>
  </diagram>
</mxfile>
